<svg xmlns="http://www.w3.org/2000/svg" width="144" height="24" viewBox="0 0 144 24">
<path d="M0 1h1v-1h142v1h1v22h-1v1h-142v-1h-1z" fill="#001" stroke="none" />
<path d="M2 3h1v-1h138v1h1v18h-1v1h-138v-1h-1z" stroke="#ffe" stroke-width="2" stroke-linecap="square" fill="none" />
<g fill="#ffe" stroke="none">
<path d="M8 4m0 9v2h1v-2h1v-1h-1v1zm2 -5v1h2v1h1v-1h-1v-1h-1zm0 7v1h2v-1h1v-3h-1v-1h-1v1h1v3h-1zm4 -2v2h1v-2z" />
<path d="M16 4m0 7v1h4v2h-1v1h-2v1h2v-1h1v-1h1v-2h-1v-1h-3z" />
<path d="M24 4m0 6v1h2v1h-1v2h-1v2h1v-2h1v1h1v1h1v-1h1v-4h-1v4h-1v-1h-1v-2h1v-1h1v-1h-1v-2h-1v2h-1zm5 -1v1h1v2h1v-2h-1v-1z" />
<path d="M32 4m0 6v1h6v3h-2v1h-2v1h2v-1h2v-1h1v-3h-1v-1h-5z" />
<path d="M40 4m0 7v4h1v1h2v-1h-2v-4h1v-1h1v5h1v-5h1v1h1v4h-1v1h1v-1h1v-4h-1v-1h-1v-1h-3v1h-1v1z" />
<path d="M48 4m1 4v7h1v1h3v-1h1v-2h-1v2h-3v-7zm3 -2v1h1v1h1v-1h-1v-1zm2 -1v1h1v1h1v-1h-1v-1z" />
<path d="M56 4m0 6v4h1v-2h1v-1h1v3h-1v1h1v1h1v-1h1v-1h-1v-3h1v3h1v-3h-1v-1h-1v-1h-1v1h-1v1h-1v-1z" />
<path d="M64 4m0 6v1h2v1h-2v1h2v2h1v1h3v-1h1v-1h-1v1h-3v-2h2v-1h-2v-1h2v-1h-2v-2h-1v2h-1z" />
<path d="M72 4m1 10v2h1v-2h1v-1h1v2h1v1h2v-1h-2v-3h-1v-2h1v-2h-1v2h-1v2h-1v2z" />
<path d="M84 4m0 6v1h2v1h-1v2h-1v2h1v-2h1v1h1v1h1v-1h1v-4h-1v4h-1v-1h-1v-2h1v-1h1v-1h-1v-2h-1v2h-1zm4 -4v1h1v1h1v-1h-1v-1zm1 3v1h1v2h1v-2h-1v-1zm1 -4v1h1v1h1v-1h-1v-1z" />
<path d="M96 4m0 6v1h2v2h-1v1h1v-1h4v2h-4v1h4v-1h1v-2h-1v-1h-3v-1h3v-1h-3v-2h-1v2h-1z" />
<path d="M104 4m0 6v1h2v1h-1v2h-1v2h1v-2h1v1h1v1h1v-1h1v-4h-1v4h-1v-1h-1v-2h1v-1h1v-1h-1v-2h-1v2h-1zm4 -4v1h1v1h1v-1h-1v-1zm1 3v1h1v2h1v-2h-1v-1zm1 -4v1h1v1h1v-1h-1v-1z" />
<path d="M112 4m0 5v6h1v1h2v-1h1v-1h-1v1h-2v-6zm5 0v1h1v4h1v-4h-1v-1z" />
<path d="M120 4m1 10v1h1v-1h2v1h-2v1h3v-2h1v1h1v-1h-1v-1h-1v-1h2v-1h-2v-1h2v-1h-2v-1h-1v1h-2v1h2v1h-2v1h2v1h-2v1z" />
<path d="M128 4m0 5v1h4v1h-3v2h1v-1h2v1h-2v1h2v1h-1v1h1v-1h1v-5h2v-1h-2v-1h-1v1h-3z" />
</g>
</svg>
