<svg xmlns="http://www.w3.org/2000/svg" xmlns:xlink="http://www.w3.org/1999/xlink" buffered-rendering="static" width="32px" height="32px" viewBox="0,0,96,96">
<path d="m57,6h6v6h-3v6h-3v-3h-3v3h-3v3h9v3h-3v3h-9v3h-3v6h-3v6h6v-3h3v-3h3v6h3v3h-12v3h-6v3h-3v3h-3v6h-3v3h-6v-27h3v-3h3v-3h3v-3h3v-6h3v-6h-9v-3h21v-3h6z" fill="#00f"/>
<path d="m6,15h6v9h-6zm69,0h6v3h3v3h3v3h3v6h3v36h-3v3h-6v3h-3v6h-6v-6h6v-3h3v-3h3v-36h-3v-9h-3v-3h-6zm-66,12h6v39h-6zm15,3h6v3h-6zm39,0h3v33h-3v-3h-3v-27h3zm-27,21h3v12h-3v3h-12v-3h6v-3h3v-6h3zm-30,18h6v9h-6z" fill="#a00"/>
<path d="m12,15h15v3h6v3h3v6h-3v3h-3v-3h-6v42h6v-3h6v-3h3v-15h6v-3h3v18h-3v6h-3v6h-6v3h-24v-9h3v-45h-3zm51,0h12v3h3v3h3v3h3v6h3v36h-3v3h-3v3h-6v6h12v3h-3v3h-3v3h-12v-3h-3v-9h-6v-3h-3v-3h-3v-3h-3v-21h6v-3h-3v-6h-3v-9h6v-3h3v-6h3zm4,12h-1v3h-3v3h-3v27h3v3h12v-3h3v-27h-3v-3h-3v-3zm-22,6h3v9h-6v-6h3z" fill="#f00"/>
<path d="m78,18h3v3h3v3h-3v-3h-3zm-69,6h6v3h-6zm15,3h6v3h-6zm42,0h6v3h-6zm0,33h9v3h-9zm-57,6h6v3h-6zm15,0h6v3h-6zm60,3h6v3h-6v3h-3v-3h3zm0,12h3v6h-6v-3h3z" fill="#000"/>
</svg>